<svg data-logo="logo" xmlns="http://www.w3.org/2000/svg" viewBox="0 0 219 42">
            <g style="opacity: 1;" id="logogram" transform="translate(0, 1) rotate(0)"><path d="M68.75 0H96.25L72.5 40H45L68.75 0Z" fill="#FFFFFF"></path><path d="M43.75 0H63.75L40 40H20L43.75 0Z" fill="#A1A1A1"></path><path d="M23.75 0H38.75L15 40H0L23.75 0Z" fill="#616161"></path></g>
            <g style="opacity: 1;" id="logotype" transform="translate(103, 8.5)"><path fill="#ffffff" d="M19.21 5.69L19.21 25L14.37 25L14.37 5.69L6.70 5.69L6.70 1.38L26.88 1.38L26.88 5.69L19.21 5.69ZM32.10 25L27.35 25L27.35 12.28L24.96 12.28L24.96 7.50L29.86 7.50L29.86 10.94L31.08 10.94Q31.78 9.10 33.30 8.20Q34.82 7.30 36.71 7.30L36.71 7.30L38.20 7.30L38.20 11.50L36.51 11.50Q34.23 11.50 33.17 12.78Q32.10 14.06 32.10 16.16L32.10 16.16L32.10 25ZM44.85 25.32L44.85 25.32Q41.76 25.32 40.01 23.82Q38.26 22.32 38.26 19.87L38.26 19.87Q38.26 17.27 40.07 15.87Q41.88 14.47 45.26 14.47L45.26 14.47L50.27 14.47L50.27 13.80Q50.27 10.97 46.89 10.97L46.89 10.97Q43.95 10.97 43.33 13.01L43.33 13.01L38.52 13.01Q39.10 10.13 41.23 8.64Q43.36 7.15 46.89 7.15L46.89 7.15Q50.80 7.15 52.86 8.90Q54.91 10.65 54.91 14.00L54.91 14.00L54.91 20.22L57.19 20.22L57.19 25L52.29 25L52.29 22.14L51.06 22.14Q50.16 23.66 48.64 24.49Q47.13 25.32 44.85 25.32ZM45.58 21.65L45.58 21.65Q46.95 21.65 48 21.15Q49.05 20.65 49.66 19.82Q50.27 18.99 50.27 17.94L50.27 17.94L50.27 17.68L45.49 17.68Q42.87 17.68 42.87 19.63L42.87 19.63Q42.87 20.60 43.60 21.12Q44.33 21.65 45.58 21.65ZM67.05 25.35L67.05 25.35Q64.30 25.35 62.25 24.23Q60.19 23.10 59.04 21.06Q57.89 19.02 57.89 16.25L57.89 16.25Q57.89 13.48 59.02 11.44Q60.16 9.40 62.23 8.27Q64.30 7.15 67.05 7.15L67.05 7.15Q70.52 7.15 72.76 8.90Q75.01 10.65 75.59 13.71L75.59 13.71L70.72 13.71Q70.34 12.57 69.41 11.96Q68.47 11.35 67.05 11.35L67.05 11.35Q65.09 11.35 63.91 12.63Q62.73 13.92 62.73 16.25L62.73 16.25Q62.73 18.58 63.92 19.87Q65.12 21.15 67.05 21.15L67.05 21.15Q70.14 21.15 70.81 18.52L70.81 18.52L75.68 18.52Q75.15 21.73 72.91 23.54Q70.66 25.35 67.05 25.35ZM81.57 25L76.73 25L76.73 0.50L81.57 0.50L81.57 13.77L81.69 13.77L88.57 7.50L94.35 7.50L86.91 14.21L94.90 25L89.24 25L83.50 17.15L81.57 18.73L81.57 25ZM101.14 25L96.18 25L96.18 1.38L101.14 1.38L101.14 25ZM115.49 25L110.18 25Q108.32 25 107.28 24.05Q106.25 23.10 106.25 21.15L106.25 21.15L106.25 11.29L103.24 11.29L103.24 7.50L106.30 7.50L106.30 2.25L111.03 2.25L111.03 7.50L115.08 7.50L115.08 11.29L111.09 11.29L111.09 21.21L115.49 21.21L115.49 25Z"></path></g>
            
          </svg>